# xmcd
#
# Track frame offsets: 
#        183
#        24310
#        41245
#        68240
#        90315
#        108358
#        123508
#        138060
#        159585
#        181075
#        197478
#        212045
#        231810
#        251498
#        270183
#
# Disc length: 3812 seconds
#
# Revision: 6
# Processed by: cddbd v1.5.2PL0 Copyright (c) Steve Scherf et al.
# Submitted via: ExactAudioCopy v0.99pb4
#
DISCID=be0ee20f
DTITLE=Various Artist - ECM Editions
DYEAR=1991
DGENRE=Jazz
TTITLE0=John Abercrombie/Sidekicks
TTITLE1=Gary Burton and Chick Corea/What Game Shall We Play Today
TTITLE2=Kenny Wheeler/Smatter
TTITLE3=Marc Johnson's Bass Desires/Twister
TTITLE4=Eberhard Weber/Chorus Part VII
TTITLE5=Dave Holland Quintet/Homecoming
TTITLE6=Egberto Gismonti/Palacio De Pinturas
TTITLE7=Pat Metheny/Bright Size Life
TTITLE8=Art Ensemble Of Chicago/Funky AECO
TTITLE9=Steve Tibbetts/Another Year
TTITLE10=Jack DeJohnette's Special Edition/New Orleans Strut
TTITLE11=The Carla Bley Band/Drinking Music
TTITLE12=Jan Garbarek Group/Misson: to be where I am
TTITLE13=Terje Rypdal/Chaser
TTITLE14=Keith Jarrett/Landscape For Future Earth
EXTD=YEAR: 1991
EXTT0=
EXTT1=
EXTT2=
EXTT3=
EXTT4=
EXTT5=
EXTT6=
EXTT7=
EXTT8=
EXTT9=
EXTT10=
EXTT11=
EXTT12=
EXTT13=
EXTT14=
PLAYORDER=
